<svg width="40" height="40" viewBox="0 0 40 40" fill="none" xmlns="http://www.w3.org/2000/svg">
  <circle cx="20" cy="20" r="20" fill="#4F46E5"/>
  <path d="M20 10C14.477 10 10 14.477 10 20C10 25.523 14.477 30 20 30C25.523 30 30 25.523 30 20C30 14.477 25.523 10 20 10ZM20 13C21.657 13 23 14.343 23 16C23 17.657 21.657 19 20 19C18.343 19 17 17.657 17 16C17 14.343 18.343 13 20 13ZM20 27.2C17.5 27.2 15.29 25.92 14 24C14.03 21.99 18 20.9 20 20.9C21.99 20.9 25.97 21.99 26 24C24.71 25.92 22.5 27.2 20 27.2Z" fill="white"/>
</svg>
